<svg width="62" height="84" viewBox="0 0 62 84" fill="none" xmlns="http://www.w3.org/2000/svg">
<path fill-rule="evenodd" clip-rule="evenodd" d="M44.8947 69.254H16.8138V69.0272H44.8947V69.254Z" fill="#A27035"/>
<path d="M5.80491 77.2358C5.72181 77.2358 5.65337 77.2085 5.59958 77.1538C5.54581 77.0997 5.51892 77.0299 5.51892 76.9455V71.717C5.51892 71.6327 5.54581 71.5635 5.59958 71.5088C5.65337 71.4541 5.72181 71.4268 5.80491 71.4268C5.88802 71.4268 5.95644 71.4541 6.01024 71.5088C6.06404 71.5635 6.09094 71.6327 6.09094 71.717V74.0375H9.6695V71.717C9.6695 71.6327 9.6964 71.5635 9.7502 71.5088C9.804 71.4541 9.87242 71.4268 9.95553 71.4268C10.0386 71.4268 10.1071 71.4541 10.1609 71.5088C10.2147 71.5635 10.2415 71.6327 10.2415 71.717V76.9455C10.2415 77.0299 10.2147 77.0997 10.1609 77.1538C10.1071 77.2085 10.0386 77.2358 9.95553 77.2358C9.87242 77.2358 9.804 77.2085 9.7502 77.1538C9.6964 77.0997 9.6695 77.0299 9.6695 76.9455V74.5581H6.09094V76.9455C6.09094 77.0299 6.06404 77.0997 6.01024 77.1538C5.95644 77.2085 5.88802 77.2358 5.80491 77.2358Z" fill="#A27035"/>
<path d="M14.0457 77.2358C13.9626 77.2358 13.8941 77.2085 13.8403 77.1538C13.7865 77.0997 13.7596 77.0299 13.7596 76.9455V71.717C13.7596 71.6327 13.7865 71.5635 13.8403 71.5088C13.8941 71.4541 13.9626 71.4268 14.0457 71.4268H17.485C17.5632 71.4268 17.6292 71.4541 17.683 71.5088C17.7416 71.5582 17.7709 71.6251 17.7709 71.7095C17.7709 71.7839 17.7416 71.8485 17.683 71.9032C17.6292 71.9573 17.5632 71.9846 17.485 71.9846H14.3316V74.0375H16.627C16.7101 74.0375 16.7785 74.0648 16.8323 74.1195C16.8861 74.1736 16.913 74.2411 16.913 74.3202C16.913 74.3993 16.8861 74.4662 16.8323 74.5209C16.7785 74.5756 16.7101 74.6029 16.627 74.6029H14.3316V76.6779H17.485C17.5632 76.6779 17.6292 76.7053 17.683 76.7599C17.7416 76.814 17.7709 76.8786 17.7709 76.9531C17.7709 77.0374 17.7416 77.1066 17.683 77.1613C17.6292 77.2108 17.5632 77.2358 17.485 77.2358H14.0457Z" fill="#A27035"/>
<path d="M21.1763 77.2358C21.0932 77.2358 21.0248 77.2085 20.971 77.1538C20.9173 77.0997 20.8904 77.0299 20.8904 76.9455V71.717C20.8904 71.6327 20.9173 71.5635 20.971 71.5088C21.0248 71.4541 21.0932 71.4268 21.1763 71.4268H22.5477C22.9045 71.4268 23.2223 71.5035 23.501 71.6577C23.7797 71.806 23.9972 72.0172 24.1537 72.2894C24.315 72.5576 24.3956 72.8671 24.3956 73.2196C24.3956 73.5564 24.315 73.8566 24.1537 74.1195C23.9972 74.3819 23.7797 74.5878 23.501 74.7367C23.2223 74.8857 22.9045 74.9601 22.5477 74.9601H21.4624V76.9455C21.4624 77.0299 21.4355 77.0997 21.3817 77.1538C21.3279 77.2085 21.2595 77.2358 21.1763 77.2358ZM24.2417 77.2358C24.1781 77.2358 24.1268 77.2236 24.0877 77.1986C24.0534 77.1735 24.0216 77.1369 23.9923 77.0869L22.5843 74.8112L23.1563 74.6623L24.469 76.7896C24.5423 76.9083 24.5545 77.0124 24.5057 77.102C24.4617 77.191 24.3736 77.2358 24.2417 77.2358ZM21.4624 74.4022H22.5477C22.797 74.4022 23.017 74.3522 23.2077 74.2533C23.4032 74.1492 23.5572 74.0078 23.6697 73.8293C23.7821 73.6507 23.8383 73.4476 23.8383 73.2196C23.8383 72.9765 23.7821 72.763 23.6697 72.5797C23.5572 72.3912 23.4032 72.2452 23.2077 72.1411C23.017 72.037 22.797 71.9846 22.5477 71.9846H21.4624V74.4022Z" fill="#A27035"/>
<path d="M27.7628 77.2358C27.6797 77.2358 27.6112 77.2085 27.5574 77.1538C27.5036 77.0997 27.4768 77.0299 27.4768 76.9455V71.717C27.4768 71.6327 27.5036 71.5635 27.5574 71.5088C27.6112 71.4541 27.6797 71.4268 27.7628 71.4268C27.8459 71.4268 27.9143 71.4541 27.9681 71.5088C28.0219 71.5635 28.0488 71.6327 28.0488 71.717V76.9455C28.0488 77.0299 28.0219 77.0997 27.9681 77.1538C27.9143 77.2085 27.8459 77.2358 27.7628 77.2358Z" fill="#A27035"/>
<path d="M33.2357 77.2358C33.1574 77.2358 33.089 77.2085 33.0303 77.1538C32.9766 77.0944 32.9497 77.0252 32.9497 76.9455V71.4268H33.5217V76.9455C33.5217 77.0252 33.4948 77.0944 33.441 77.1538C33.3873 77.2085 33.3188 77.2358 33.2357 77.2358ZM31.2117 71.955C31.1335 71.955 31.0699 71.9299 31.0211 71.8805C30.9722 71.8311 30.9478 71.7688 30.9478 71.6949C30.9478 71.6152 30.9722 71.5507 31.0211 71.5012C31.0699 71.4518 31.1335 71.4268 31.2117 71.4268H35.267C35.3452 71.4268 35.4088 71.4518 35.4576 71.5012C35.5066 71.5507 35.531 71.6152 35.531 71.6949C35.531 71.7688 35.5066 71.8311 35.4576 71.8805C35.4088 71.9299 35.3452 71.955 35.267 71.955H31.2117Z" fill="#A27035"/>
<path d="M37.5271 77.2358C37.4147 77.2358 37.334 77.1887 37.2851 77.0944C37.2363 77.0002 37.2313 76.9083 37.2704 76.8193L39.4265 71.6275C39.4802 71.4937 39.5731 71.4268 39.7051 71.4268C39.8322 71.4268 39.9227 71.4937 39.9764 71.6275L42.1397 76.8268C42.1838 76.9211 42.1764 77.0124 42.1177 77.102C42.0639 77.191 41.9857 77.2358 41.8831 77.2358C41.8244 77.2358 41.7706 77.2207 41.7217 77.191C41.6777 77.1613 41.6411 77.1165 41.6118 77.0572L39.5951 72.0963H39.8224L37.7911 77.0572C37.7667 77.1165 37.73 77.1613 37.6811 77.191C37.6371 77.2207 37.5858 77.2358 37.5271 77.2358ZM38.0111 75.8525L38.2311 75.3539H41.2084L41.4284 75.8525H38.0111Z" fill="#A27035"/>
<path d="M47.4826 77.3102C47.0867 77.3102 46.7151 77.2335 46.368 77.0793C46.0258 76.9257 45.7227 76.7128 45.4587 76.44C45.1996 76.1625 44.9967 75.8449 44.85 75.4877C44.7034 75.1259 44.63 74.7391 44.63 74.3278C44.63 73.9212 44.7009 73.539 44.8427 73.1824C44.9893 72.82 45.1922 72.5029 45.4513 72.2301C45.7153 71.9573 46.0184 71.7444 46.3607 71.5908C46.7078 71.432 47.0818 71.3523 47.4826 71.3523C47.8346 71.3523 48.1549 71.4047 48.4433 71.5088C48.7318 71.6129 49.0104 71.7787 49.2793 72.0073C49.3233 72.0416 49.3477 72.0841 49.3526 72.1335C49.3624 72.1783 49.3575 72.2226 49.3379 72.2673C49.3184 72.3069 49.2891 72.3366 49.25 72.3563C49.2402 72.3965 49.2157 72.4261 49.1766 72.4459C49.1375 72.4657 49.0911 72.4733 49.0373 72.468C48.9884 72.4634 48.9395 72.4407 48.8906 72.4011C48.7 72.2324 48.4922 72.1085 48.2673 72.0294C48.0424 71.9451 47.7809 71.9032 47.4826 71.9032C47.1649 71.9032 46.8667 71.9672 46.588 72.0963C46.3142 72.2255 46.0722 72.4011 45.862 72.6245C45.6518 72.8473 45.4856 73.1056 45.3633 73.3982C45.246 73.6902 45.1874 74.0003 45.1874 74.3278C45.1874 74.6646 45.246 74.9799 45.3633 75.2725C45.4856 75.5645 45.6518 75.8228 45.862 76.0456C46.0722 76.269 46.3142 76.4446 46.588 76.5738C46.8667 76.6977 47.1649 76.7599 47.4826 76.7599C47.7515 76.7599 48.0058 76.7151 48.2453 76.6261C48.4848 76.5366 48.7122 76.408 48.9273 76.2393C48.9859 76.1893 49.0471 76.1695 49.1106 76.1794C49.1791 76.1893 49.2377 76.2195 49.2866 76.269C49.3355 76.3184 49.36 76.383 49.36 76.4621C49.36 76.5017 49.3551 76.5389 49.3453 76.5738C49.3355 76.6035 49.3135 76.636 49.2793 76.6704C49.0299 76.9036 48.7513 77.0694 48.4433 77.1689C48.1353 77.2631 47.8151 77.3102 47.4826 77.3102ZM49.36 76.4621L48.8026 76.3434V74.8484H47.6587C47.5756 74.8484 47.5071 74.8234 47.4533 74.774C47.3995 74.7245 47.3726 74.6623 47.3726 74.5878C47.3726 74.5133 47.3995 74.454 47.4533 74.4092C47.5071 74.3598 47.5756 74.3353 47.6587 74.3353H49.0739C49.1571 74.3353 49.2255 74.3621 49.2793 74.4168C49.3331 74.4662 49.36 74.5331 49.36 74.6175V76.4621Z" fill="#A27035"/>
<path d="M52.8768 77.2358C52.7937 77.2358 52.7253 77.2085 52.6715 77.1538C52.6177 77.0997 52.5908 77.0299 52.5908 76.9455V71.717C52.5908 71.6327 52.6177 71.5635 52.6715 71.5088C52.7253 71.4541 52.7937 71.4268 52.8768 71.4268H56.3162C56.3943 71.4268 56.4603 71.4541 56.5141 71.5088C56.5728 71.5582 56.6021 71.6251 56.6021 71.7095C56.6021 71.7839 56.5728 71.8485 56.5141 71.9032C56.4603 71.9573 56.3943 71.9846 56.3162 71.9846H53.1628V74.0375H55.4581C55.5412 74.0375 55.6097 74.0648 55.6635 74.1195C55.7173 74.1736 55.7442 74.2411 55.7442 74.3202C55.7442 74.3993 55.7173 74.4662 55.6635 74.5209C55.6097 74.5756 55.5412 74.6029 55.4581 74.6029H53.1628V76.6779H56.3162C56.3943 76.6779 56.4603 76.7053 56.5141 76.7599C56.5728 76.814 56.6021 76.8786 56.6021 76.9531C56.6021 77.0374 56.5728 77.1066 56.5141 77.1613C56.4603 77.2108 56.3943 77.2358 56.3162 77.2358H52.8768Z" fill="#A27035"/>
<path d="M7.44405 66.9208C7.13113 66.9208 6.84029 66.876 6.57141 66.787C6.30741 66.6927 6.07759 66.5613 5.88207 66.3926C5.68651 66.2239 5.5374 66.0284 5.43473 65.805C5.39562 65.7259 5.39317 65.6538 5.4274 65.5892C5.46651 65.52 5.53006 65.4729 5.61806 65.4479C5.68651 65.4281 5.7525 65.4357 5.81605 65.4706C5.88448 65.5049 5.93581 65.5572 5.97005 65.6265C6.0434 65.7701 6.15094 65.8993 6.29272 66.0133C6.4345 66.1273 6.60318 66.2169 6.7987 66.2809C6.99428 66.3408 7.20936 66.3705 7.44405 66.3705C7.70312 66.3705 7.93294 66.328 8.13334 66.2437C8.33379 66.1547 8.49025 66.0284 8.60267 65.8644C8.72002 65.6957 8.77869 65.4927 8.77869 65.2547C8.77869 64.9522 8.66868 64.6916 8.44867 64.4735C8.22872 64.2553 7.88402 64.1169 7.41469 64.057C6.84269 63.9878 6.39539 63.8092 6.07271 63.5218C5.75004 63.2292 5.58873 62.872 5.58873 62.4509C5.58873 62.1484 5.66695 61.8854 5.82339 61.6621C5.98473 61.4393 6.20474 61.2682 6.48337 61.149C6.76205 61.0251 7.08226 60.9628 7.44405 60.9628C7.71293 60.9628 7.95738 61.0076 8.17739 61.0972C8.39734 61.181 8.58804 61.2956 8.74932 61.4393C8.91559 61.5777 9.05003 61.7319 9.1527 61.9C9.20156 61.9797 9.21625 62.0565 9.19669 62.1309C9.182 62.2054 9.14048 62.2624 9.072 62.3019C8.9987 62.3368 8.92288 62.3415 8.8447 62.3165C8.77135 62.2921 8.71514 62.2449 8.67603 62.1757C8.60267 62.0611 8.50981 61.9547 8.39734 61.8558C8.2898 61.7516 8.15783 61.6696 8.00137 61.6103C7.8449 61.5509 7.65672 61.5184 7.43671 61.5137C7.05049 61.5137 6.74003 61.5975 6.50539 61.7662C6.2707 61.9302 6.15341 62.1705 6.15341 62.4881C6.15341 62.6562 6.1974 62.8127 6.28538 62.9564C6.37336 63.0954 6.51761 63.217 6.71806 63.3211C6.92339 63.42 7.19714 63.4945 7.53938 63.5439C8.15049 63.6335 8.60267 63.8243 8.89604 64.1169C9.19422 64.4043 9.34334 64.7812 9.34334 65.2472C9.34334 65.5148 9.29448 65.7533 9.19669 65.9615C9.10377 66.1698 8.96933 66.3455 8.79337 66.4891C8.62223 66.6282 8.41936 66.7346 8.18467 66.8091C7.95491 66.8835 7.70806 66.9208 7.44405 66.9208Z" fill="#A27035"/>
<path d="M14.6533 66.9208C14.2281 66.9208 13.837 66.8463 13.48 66.6974C13.1232 66.5491 12.8127 66.3408 12.5487 66.0726C12.2896 65.805 12.0867 65.4903 11.9401 65.1285C11.7983 64.7661 11.7274 64.3694 11.7274 63.9383C11.7274 63.5119 11.7983 63.1175 11.9401 62.7557C12.0867 62.3939 12.2896 62.0786 12.5487 61.811C12.8127 61.5434 13.1232 61.3351 13.48 61.1862C13.837 61.0373 14.2281 60.9628 14.6533 60.9628C15.0738 60.9628 15.4624 61.0373 15.8194 61.1862C16.1762 61.3351 16.4867 61.5434 16.7507 61.811C17.0147 62.0786 17.2175 62.3939 17.3593 62.7557C17.506 63.1175 17.5793 63.5119 17.5793 63.9383C17.5793 64.3694 17.506 64.7661 17.3593 65.1285C17.2175 65.4903 17.0147 65.805 16.7507 66.0726C16.4867 66.3408 16.1762 66.5491 15.8194 66.6974C15.4624 66.8463 15.0738 66.9208 14.6533 66.9208ZM14.6533 66.3705C14.9907 66.3705 15.3036 66.3106 15.592 66.1919C15.8804 66.068 16.1298 65.897 16.34 65.6788C16.5551 65.4554 16.7213 65.1977 16.8387 64.9051C16.956 64.6073 17.0147 64.285 17.0147 63.9383C17.0147 63.5963 16.956 63.2786 16.8387 62.986C16.7213 62.6888 16.5551 62.4311 16.34 62.2124C16.1298 61.9896 15.8804 61.8185 15.592 61.6993C15.3036 61.5754 14.9907 61.5137 14.6533 61.5137C14.3112 61.5137 13.9958 61.5754 13.7074 61.6993C13.419 61.8185 13.1672 61.9896 12.952 62.2124C12.7418 62.4311 12.5781 62.6888 12.4607 62.986C12.3434 63.2786 12.2847 63.5963 12.2847 63.9383C12.2847 64.285 12.3434 64.6073 12.4607 64.9051C12.5781 65.1977 12.7418 65.4554 12.952 65.6788C13.1672 65.897 13.419 66.068 13.7074 66.1919C13.9958 66.3106 14.3112 66.3705 14.6533 66.3705Z" fill="#A27035"/>
<path d="M20.5118 66.8463C20.4336 66.8463 20.3651 66.819 20.3065 66.7643C20.2527 66.7102 20.2258 66.6404 20.2258 66.556V61.3276C20.2258 61.2485 20.2527 61.181 20.3065 61.1269C20.3651 61.067 20.4336 61.0373 20.5118 61.0373C20.59 61.0373 20.656 61.067 20.7098 61.1269C20.7685 61.181 20.7978 61.2485 20.7978 61.3276V66.296H23.6651C23.7433 66.296 23.8093 66.3234 23.8631 66.378C23.9217 66.4275 23.9511 66.4921 23.9511 66.5712C23.9511 66.6503 23.9217 66.7172 23.8631 66.7719C23.8093 66.8213 23.7433 66.8463 23.6651 66.8463H20.5118Z" fill="#A27035"/>
<path d="M28.6138 66.9656C28.1689 66.9656 27.7729 66.8783 27.4258 66.705C27.0836 66.5316 26.8147 66.2908 26.6191 65.9836C26.4285 65.6759 26.3331 65.324 26.3331 64.9272V61.3276C26.3331 61.2432 26.36 61.174 26.4138 61.1193C26.4676 61.0646 26.536 61.0373 26.6191 61.0373C26.7022 61.0373 26.7707 61.0646 26.8244 61.1193C26.8782 61.174 26.9051 61.2432 26.9051 61.3276V64.9272C26.9051 65.2198 26.976 65.4775 27.1178 65.7009C27.2644 65.9243 27.4673 66.1 27.7264 66.2291C27.9856 66.353 28.2813 66.4147 28.6138 66.4147C28.9413 66.4147 29.2322 66.353 29.4864 66.2291C29.7406 66.1 29.9387 65.9243 30.0804 65.7009C30.2271 65.4775 30.3004 65.2198 30.3004 64.9272V61.3276C30.3004 61.2432 30.3273 61.174 30.3811 61.1193C30.4348 61.0646 30.5033 61.0373 30.5864 61.0373C30.6744 61.0373 30.7428 61.0646 30.7917 61.1193C30.8455 61.174 30.8724 61.2432 30.8724 61.3276V64.9272C30.8724 65.324 30.7746 65.6759 30.5791 65.9836C30.3884 66.2908 30.122 66.5316 29.7797 66.705C29.4424 66.8783 29.0537 66.9656 28.6138 66.9656Z" fill="#A27035"/>
<path d="M35.4727 66.8463C35.3946 66.8463 35.3261 66.819 35.2674 66.7643C35.2137 66.705 35.1868 66.6357 35.1868 66.556V61.0373H35.7588V66.556C35.7588 66.6357 35.7319 66.705 35.6781 66.7643C35.6243 66.819 35.5558 66.8463 35.4727 66.8463ZM33.4488 61.5655C33.3706 61.5655 33.307 61.5405 33.2581 61.491C33.2092 61.4416 33.1848 61.3793 33.1848 61.3055C33.1848 61.2258 33.2092 61.1612 33.2581 61.1118C33.307 61.0623 33.3706 61.0373 33.4488 61.0373H37.5041C37.5823 61.0373 37.6458 61.0623 37.6947 61.1118C37.7436 61.1612 37.7681 61.2258 37.7681 61.3055C37.7681 61.3793 37.7436 61.4416 37.6947 61.491C37.6458 61.5405 37.5823 61.5655 37.5041 61.5655H33.4488Z" fill="#A27035"/>
<path d="M40.366 66.8463C40.2829 66.8463 40.2144 66.819 40.1607 66.7643C40.1069 66.7102 40.08 66.6404 40.08 66.556V61.3276C40.08 61.2432 40.1069 61.174 40.1607 61.1193C40.2144 61.0646 40.2829 61.0373 40.366 61.0373C40.4491 61.0373 40.5175 61.0646 40.5713 61.1193C40.6251 61.174 40.6519 61.2432 40.6519 61.3276V66.556C40.6519 66.6404 40.6251 66.7102 40.5713 66.7643C40.5175 66.819 40.4491 66.8463 40.366 66.8463Z" fill="#A27035"/>
<path d="M46.235 66.9208C45.8096 66.9208 45.4185 66.8463 45.0616 66.6974C44.7047 66.5491 44.3943 66.3408 44.1303 66.0726C43.8712 65.805 43.6683 65.4903 43.5216 65.1285C43.3799 64.7661 43.309 64.3694 43.309 63.9383C43.309 63.5119 43.3799 63.1175 43.5216 62.7557C43.6683 62.3939 43.8712 62.0786 44.1303 61.811C44.3943 61.5434 44.7047 61.3351 45.0616 61.1862C45.4185 61.0373 45.8096 60.9628 46.235 60.9628C46.6554 60.9628 47.044 61.0373 47.4009 61.1862C47.7578 61.3351 48.0682 61.5434 48.3322 61.811C48.5962 62.0786 48.7991 62.3939 48.9409 62.7557C49.0875 63.1175 49.1609 63.5119 49.1609 63.9383C49.1609 64.3694 49.0875 64.7661 48.9409 65.1285C48.7991 65.4903 48.5962 65.805 48.3322 66.0726C48.0682 66.3408 47.7578 66.5491 47.4009 66.6974C47.044 66.8463 46.6554 66.9208 46.235 66.9208ZM46.235 66.3705C46.5723 66.3705 46.8851 66.3106 47.1736 66.1919C47.462 66.068 47.7114 65.897 47.9216 65.6788C48.1366 65.4554 48.3029 65.1977 48.4202 64.9051C48.5376 64.6073 48.5962 64.285 48.5962 63.9383C48.5962 63.5963 48.5376 63.2786 48.4202 62.986C48.3029 62.6888 48.1366 62.4311 47.9216 62.2124C47.7114 61.9896 47.462 61.8185 47.1736 61.6993C46.8851 61.5754 46.5723 61.5137 46.235 61.5137C45.8927 61.5137 45.5774 61.5754 45.2889 61.6993C45.0005 61.8185 44.7487 61.9896 44.5336 62.2124C44.3234 62.4311 44.1596 62.6888 44.0423 62.986C43.9249 63.2786 43.8663 63.5963 43.8663 63.9383C43.8663 64.285 43.9249 64.6073 44.0423 64.9051C44.1596 65.1977 44.3234 65.4554 44.5336 65.6788C44.7487 65.897 45.0005 66.068 45.2889 66.1919C45.5774 66.3106 45.8927 66.3705 46.235 66.3705Z" fill="#A27035"/>
<path d="M52.0935 66.8463C52.0104 66.8463 51.9419 66.819 51.8881 66.7643C51.8344 66.7102 51.8075 66.6404 51.8075 66.556V61.3276C51.8075 61.2432 51.8344 61.174 51.8881 61.1193C51.9419 61.0646 52.0104 61.0373 52.0935 61.0373C52.1815 61.0373 52.2548 61.0722 52.3135 61.1414L55.8187 65.8126V61.3276C55.8187 61.2432 55.8456 61.174 55.8994 61.1193C55.9532 61.0646 56.0217 61.0373 56.1048 61.0373C56.183 61.0373 56.249 61.0646 56.3028 61.1193C56.3614 61.174 56.3907 61.2432 56.3907 61.3276V66.556C56.3907 66.6404 56.3614 66.7102 56.3028 66.7643C56.249 66.819 56.183 66.8463 56.1048 66.8463C56.0656 66.8463 56.0265 66.8388 55.9874 66.8242C55.9483 66.8091 55.9165 66.7841 55.8921 66.7498L52.3795 62.0786V66.556C52.3795 66.6404 52.3501 66.7102 52.2915 66.7643C52.2377 66.819 52.1717 66.8463 52.0935 66.8463Z" fill="#A27035"/>
<path fill-rule="evenodd" clip-rule="evenodd" d="M26.3055 29.7347C27.4313 30.8402 29.0368 31.7855 30.8424 32.7012C34.1194 34.363 35.2062 36.3138 34.8335 37.9343C34.4662 39.5318 32.7157 40.6138 30.7424 40.6138C29.4851 40.6138 28.1343 40.263 27.0401 39.352C25.9768 38.4668 25.1775 37.0705 24.9306 35.0129H24.8176V40.3418H24.3705V34.5594H25.3327L25.3531 34.7632C25.5605 36.8339 26.3314 38.1753 27.3238 39.0015C28.32 39.8309 29.5627 40.1603 30.7424 40.1603C32.5921 40.1603 34.0947 39.1505 34.3981 37.8313C34.6962 36.5351 33.8713 34.7443 30.6424 33.1068C28.8315 32.1885 27.1728 31.2176 25.9944 30.0605C24.8097 28.8972 24.0969 27.5309 24.2145 25.8358L24.6606 25.8676C24.5547 27.3925 25.1861 28.6354 26.3055 29.7347Z" fill="#A27035"/>
<path fill-rule="evenodd" clip-rule="evenodd" d="M35.3931 32.5851C34.3175 31.5202 32.6829 30.456 30.403 29.3912C28.733 28.6111 27.6783 27.7722 27.0889 26.9353C26.4946 26.0914 26.3774 25.2533 26.5791 24.5104C26.7783 23.7762 27.2817 23.1604 27.8847 22.7304C28.4871 22.301 29.2094 22.0422 29.8723 22.0422C31.125 22.0422 32.4714 22.3568 33.5593 23.2584C34.6179 24.1357 35.405 25.5466 35.6394 27.6886H35.797V22.7225H36.2441V28.1421H35.2335L35.2148 27.9362C35.0179 25.7722 34.2569 24.4221 33.2763 23.6096C32.2916 22.7934 31.0565 22.4958 29.8723 22.4958C29.3167 22.4958 28.6825 22.7161 28.1418 23.1015C27.6018 23.4865 27.1756 24.0215 27.0101 24.6308C26.8471 25.2314 26.9303 25.9297 27.4528 26.6717C27.9802 27.4206 28.9589 28.2173 30.59 28.9792C32.8934 30.0551 34.5788 31.1452 35.7055 32.2605C36.8344 33.3782 37.4122 34.5321 37.4717 35.7271L37.0252 35.75C36.9729 34.7001 36.4664 33.6477 35.3931 32.5851Z" fill="#A27035"/>
<path d="M30.842 8.00967V8.16633C43.5658 8.16633 49.5897 18.6752 49.5897 31.5804C49.5897 44.4856 43.5658 54.9945 30.842 54.9945C18.1182 54.9945 12.074 44.5012 12.074 31.596C12.074 28.7926 8.25104 26.0832 9.14669 23.593L9.00772 23.5304C8.09665 26.0519 7.60254 28.7613 7.60254 31.596C7.60254 44.5952 18.0255 55.1668 30.842 55.1668C43.6584 55.1668 54.0815 44.5795 54.0815 31.5804C54.0815 18.5813 43.6584 8.00967 30.842 8.00967Z" fill="#A27035"/>
<path d="M11.5093 20.7425C11.4938 20.7582 11.4784 20.7738 11.4475 20.7895C11.4166 20.7895 11.4012 20.7895 11.3702 20.7738L9.87243 19.8968C9.85701 19.8811 9.84158 19.8655 9.82609 19.8342C9.81066 19.8028 9.82609 19.7872 9.84158 19.7558C9.857 19.7402 9.87243 19.7245 9.90335 19.7089C9.9342 19.7089 9.94963 19.7089 9.98055 19.7245L11.4166 20.5546L11.8953 19.7089C11.9107 19.6932 11.9262 19.6775 11.957 19.6619C11.9879 19.6619 12.0034 19.6619 12.0342 19.6775C12.0497 19.6932 12.0651 19.7089 12.0806 19.7402C12.0806 19.7715 12.0806 19.7872 12.0651 19.8185L11.5093 20.7425Z" fill="#A27035"/>
<path d="M12.9299 18.5029C12.8526 18.6282 12.7446 18.7222 12.6364 18.7848C12.5284 18.8475 12.4049 18.8945 12.2813 18.9258C12.1578 18.9414 12.0342 18.9414 11.9107 18.9101C11.7871 18.8788 11.6637 18.8161 11.5401 18.7378C11.432 18.6595 11.3394 18.5499 11.2622 18.4403C11.2004 18.3306 11.1541 18.2054 11.1232 18.0801C11.1077 17.9548 11.1077 17.8295 11.1386 17.7042C11.1695 17.5789 11.2313 17.4536 11.3085 17.3283C11.3857 17.2187 11.4938 17.1247 11.6019 17.0464C11.7099 16.9838 11.8335 16.9368 11.957 16.9054C12.0806 16.8898 12.2041 16.8898 12.3277 16.9211C12.4511 16.9524 12.5747 17.0151 12.6828 17.0934C12.8063 17.1717 12.899 17.2813 12.9607 17.391C13.0225 17.5006 13.0688 17.6259 13.0997 17.7512C13.1151 17.8765 13.1151 18.0018 13.0843 18.127C13.0688 18.268 13.0071 18.3776 12.9299 18.5029ZM12.7908 18.3933C12.8526 18.2993 12.899 18.2053 12.9299 18.0957C12.9607 17.9861 12.9607 17.8921 12.9453 17.7825C12.9299 17.6729 12.8835 17.5789 12.8372 17.5006C12.7754 17.4066 12.6982 17.3283 12.6056 17.2657C12.5129 17.203 12.4203 17.156 12.3122 17.1247C12.2041 17.0934 12.1114 17.0934 12.0034 17.109C11.8953 17.1247 11.8026 17.156 11.7099 17.2187C11.6173 17.2813 11.5401 17.344 11.4784 17.4379C11.4166 17.5319 11.3702 17.6259 11.3394 17.7355C11.3085 17.8451 11.3085 17.9391 11.324 18.0487C11.3394 18.1584 11.3857 18.2523 11.432 18.3306C11.4938 18.4246 11.5555 18.5029 11.6482 18.5656C11.7409 18.6282 11.8335 18.6752 11.9416 18.7065C12.0497 18.7378 12.1423 18.7378 12.2504 18.7222C12.3585 18.7065 12.4511 18.6752 12.5438 18.6125C12.6364 18.5656 12.7136 18.4873 12.7908 18.3933Z" fill="#A27035"/>
<path d="M14.5821 16.467C14.4739 16.5766 14.3658 16.6549 14.2423 16.7019C14.1188 16.7489 13.9953 16.7646 13.8872 16.7489C13.7636 16.7332 13.6556 16.6706 13.5629 16.5766L12.6827 15.7622C12.6673 15.7466 12.6519 15.7152 12.6519 15.6996C12.6519 15.6682 12.6673 15.6526 12.6827 15.6213C12.6981 15.6056 12.7291 15.5899 12.7445 15.5899C12.7754 15.5899 12.7908 15.6056 12.8063 15.6213L13.6864 16.4357C13.7636 16.4983 13.8409 16.5453 13.9181 16.561C14.0107 16.5766 14.0879 16.561 14.1806 16.5296C14.2732 16.4983 14.3504 16.4357 14.4276 16.3417C14.5048 16.2634 14.5511 16.1694 14.5821 16.0754C14.6129 15.9815 14.6129 15.8875 14.5821 15.8092C14.5666 15.7152 14.5203 15.6526 14.4431 15.5743L13.5629 14.7599C13.5474 14.7442 13.532 14.7129 13.532 14.6972C13.532 14.6659 13.5474 14.6502 13.5629 14.6189C13.5784 14.6033 13.6092 14.5876 13.6246 14.5876C13.6556 14.5876 13.671 14.6033 13.6864 14.6189L14.5666 15.4333C14.6593 15.5273 14.721 15.6213 14.7673 15.7466C14.7982 15.8718 14.7982 15.9815 14.7673 16.1068C14.7365 16.2477 14.6747 16.3574 14.5821 16.467Z" fill="#A27035"/>
<path d="M15.8019 15.1357C15.7864 15.1514 15.7556 15.167 15.7247 15.167C15.6938 15.167 15.6784 15.1514 15.6629 15.1357L14.5202 13.8044C14.5048 13.7888 14.4894 13.7575 14.4894 13.7261C14.4894 13.6948 14.5048 13.6792 14.5202 13.6635C14.5357 13.6478 14.5666 13.6322 14.5974 13.6478L16.5122 14.0394L15.5394 12.8961C15.5239 12.8804 15.5085 12.8491 15.5085 12.8178C15.5085 12.7864 15.5239 12.7708 15.5394 12.7551C15.5548 12.7395 15.5857 12.7238 15.6011 12.7238C15.632 12.7238 15.6475 12.7395 15.6629 12.7551L16.8056 14.0864C16.8211 14.1021 16.8365 14.1333 16.8365 14.1647C16.8365 14.196 16.8211 14.2116 16.8056 14.2274C16.7901 14.243 16.7901 14.243 16.7747 14.243C16.7593 14.243 16.7438 14.243 16.7284 14.243L14.8137 13.8514L15.7864 14.9948C15.8019 15.0104 15.8174 15.0418 15.8174 15.0731C15.8328 15.1044 15.8328 15.1201 15.8019 15.1357Z" fill="#A27035"/>
<path d="M18.3653 13.1153C18.2572 13.1936 18.1336 13.2406 18.0101 13.272C17.8865 13.3033 17.7631 13.3033 17.6395 13.272C17.516 13.2406 17.3924 13.1936 17.2843 13.131C17.1763 13.0527 17.0836 12.9744 17.0064 12.8491C16.9292 12.7395 16.8828 12.6142 16.852 12.4889C16.8211 12.3636 16.8211 12.2383 16.8366 12.113C16.852 11.9877 16.8983 11.8624 16.9601 11.7528C17.0219 11.6432 17.1145 11.5492 17.2226 11.4709C17.3152 11.4082 17.4233 11.3612 17.516 11.3299C17.6086 11.2986 17.7167 11.2986 17.8403 11.2986C17.8557 11.2986 17.8711 11.2986 17.8865 11.3143C17.902 11.3299 17.902 11.3456 17.902 11.3612C17.902 11.3769 17.902 11.3926 17.902 11.4082C17.902 11.4239 17.902 11.4396 17.902 11.4396C17.902 11.4552 17.8865 11.4709 17.8711 11.4709C17.8557 11.4865 17.8403 11.4865 17.8093 11.4865C17.7321 11.4709 17.6395 11.4865 17.5623 11.5022C17.4851 11.5179 17.4079 11.5648 17.3152 11.6275C17.2226 11.6901 17.1608 11.7684 17.0991 11.8624C17.0527 11.9564 17.0064 12.0504 16.9909 12.1443C16.9755 12.254 16.9755 12.3479 17.0064 12.4576C17.0219 12.5672 17.0681 12.6612 17.1299 12.7551C17.1917 12.8491 17.2689 12.9274 17.3616 12.9744C17.4542 13.037 17.5468 13.0684 17.6395 13.0997C17.7321 13.1153 17.8403 13.1153 17.9483 13.0997C18.041 13.0841 18.149 13.037 18.2263 12.9744C18.3035 12.9274 18.3653 12.8648 18.4116 12.7864C18.4579 12.7081 18.5042 12.6298 18.5197 12.5515C18.5197 12.5202 18.5351 12.5045 18.566 12.5045C18.5814 12.4889 18.6123 12.4889 18.6278 12.4889C18.6432 12.4889 18.6741 12.5045 18.6895 12.5359C18.6895 12.5515 18.705 12.5515 18.705 12.5672C18.705 12.5828 18.705 12.5986 18.705 12.6142C18.6741 12.7238 18.6278 12.8334 18.566 12.9117C18.5351 12.9744 18.4579 13.0527 18.3653 13.1153ZM18.7204 12.5202L18.5505 12.5986L18.2726 12.1913L17.9483 12.4106C17.9329 12.4262 17.902 12.4262 17.8711 12.4262C17.8403 12.4262 17.8248 12.4106 17.8093 12.3949C17.7939 12.3792 17.7939 12.3479 17.7939 12.3323C17.7939 12.3166 17.8093 12.2853 17.8403 12.2696L18.2263 11.9877C18.2417 11.972 18.2726 11.972 18.3035 11.972C18.3344 11.972 18.3498 11.9877 18.3653 12.019L18.7204 12.5202Z" fill="#A27035"/>
<path d="M19.6932 12.2383C19.6623 12.2539 19.6469 12.2539 19.616 12.2539C19.5851 12.2539 19.5697 12.2383 19.5543 12.2069L18.7204 10.6721C18.705 10.6408 18.705 10.6251 18.705 10.5938C18.705 10.5625 18.7204 10.5468 18.7513 10.5312L19.7704 9.96731C19.7859 9.95166 19.8167 9.95166 19.8476 9.95166C19.8785 9.95166 19.894 9.96731 19.9094 9.99866C19.9248 10.0143 19.9248 10.0457 19.9094 10.077C19.894 10.1083 19.894 10.124 19.8631 10.1396L18.9366 10.6565L19.2608 11.2673L19.9403 10.8914C19.9712 10.8757 19.9866 10.8757 20.0175 10.8757C20.0484 10.8757 20.0638 10.8914 20.0792 10.9227C20.0947 10.9384 20.0947 10.9697 20.0947 11.001C20.0947 11.0323 20.0792 11.048 20.0484 11.0637L19.3689 11.4395L19.7087 12.0503L20.6352 11.5335C20.6506 11.5178 20.6814 11.5178 20.7124 11.5178C20.7432 11.5178 20.7587 11.5335 20.7741 11.5648C20.7896 11.5961 20.7896 11.6118 20.7896 11.6431C20.7741 11.6745 20.7587 11.6901 20.7432 11.7058L19.6932 12.2383Z" fill="#A27035"/>
<path d="M22.7044 10.7347C22.6735 10.7504 22.6426 10.7504 22.6271 10.7347C22.5963 10.7191 22.5808 10.7034 22.5808 10.6721L21.9786 9.02761C21.9632 8.99631 21.9632 8.98067 21.9786 8.94931C21.994 8.91802 22.0095 8.90231 22.0404 8.90231L22.5963 8.68306C22.6889 8.65176 22.7816 8.63606 22.8742 8.65176C22.9669 8.66741 23.0441 8.69871 23.1059 8.74571C23.1676 8.79271 23.2293 8.87101 23.2603 8.96496C23.2911 9.04326 23.2911 9.13726 23.2757 9.21556C23.2603 9.29386 23.2139 9.37216 23.1521 9.43481C23.2603 9.41916 23.3684 9.45046 23.461 9.49746C23.5536 9.54447 23.6154 9.63841 23.6617 9.76372C23.7081 9.87337 23.7081 9.96732 23.6926 10.077C23.6772 10.1709 23.6308 10.2649 23.569 10.3432C23.5073 10.4215 23.4146 10.4842 23.3066 10.5155L22.7044 10.7347ZM22.3955 9.63841L22.8742 9.46617C22.9669 9.43481 23.0286 9.37216 23.0749 9.29386C23.1213 9.21556 23.1213 9.13726 23.0904 9.04326C23.0595 8.94931 22.9977 8.88666 22.9205 8.87101C22.8433 8.83966 22.7507 8.85536 22.658 8.88666L22.1794 9.05897L22.3955 9.63841ZM22.7198 10.5311L23.2293 10.3432C23.3066 10.3119 23.3683 10.2806 23.4146 10.2179C23.461 10.1709 23.4918 10.1083 23.5073 10.0456C23.5228 9.98297 23.5073 9.90467 23.4918 9.82637C23.461 9.74807 23.4301 9.70106 23.3684 9.65406C23.322 9.60712 23.2603 9.59141 23.1831 9.57576C23.1213 9.57576 23.0441 9.57576 22.9669 9.60712L22.4573 9.79501L22.7198 10.5311Z" fill="#A27035"/>
<path d="M24.4956 10.1083C24.4647 10.124 24.4338 10.1083 24.4029 10.077C24.372 10.0457 24.3721 10.0143 24.3721 9.98304L24.6345 8.10363C24.6345 8.05668 24.6654 8.02533 24.7118 8.00968C24.7581 7.99403 24.789 8.00968 24.8198 8.05668L25.9625 9.56019C25.9779 9.59149 25.9934 9.62284 25.9779 9.65414C25.9625 9.68543 25.9471 9.71679 25.9162 9.71679C25.9007 9.71679 25.8853 9.71679 25.8545 9.71679C25.839 9.71679 25.8235 9.70114 25.8081 9.68543L24.7272 8.24458L24.8044 8.22893L24.5728 10.03C24.5728 10.0457 24.5573 10.077 24.5419 10.077C24.5265 10.0926 24.511 10.1083 24.4956 10.1083ZM24.5265 9.60714L24.5573 9.41924L25.5302 9.15299L25.6382 9.29394L24.5265 9.60714Z" fill="#A27035"/>
<path d="M26.8117 9.54453C26.7808 9.54453 26.7654 9.54453 26.7345 9.52888C26.719 9.51318 26.7036 9.49753 26.7036 9.46623L26.4257 7.72777C26.4257 7.69647 26.4257 7.68077 26.4411 7.64947C26.4566 7.63382 26.472 7.61817 26.5029 7.61817L26.9507 7.53982C27.0742 7.52417 27.1823 7.52417 27.275 7.55552C27.383 7.58682 27.4603 7.64947 27.522 7.72777C27.5838 7.80607 27.6301 7.90007 27.6455 8.02538C27.661 8.13497 27.661 8.24462 27.6147 8.33857C27.5838 8.43258 27.522 8.51088 27.4294 8.57353C27.3522 8.63612 27.244 8.68312 27.1205 8.69877L26.7654 8.76142L26.8735 9.41923C26.8735 9.45052 26.8735 9.46623 26.8581 9.49753C26.8581 9.52888 26.8426 9.54453 26.8117 9.54453ZM26.7499 8.58917L27.1051 8.52652C27.1823 8.51088 27.2595 8.47952 27.3213 8.43252C27.383 8.38557 27.4294 8.33857 27.4448 8.26027C27.4757 8.19762 27.4757 8.11932 27.4603 8.04102C27.4448 7.96272 27.4139 7.88437 27.3676 7.83742C27.3212 7.79042 27.2595 7.74342 27.1978 7.71212C27.1205 7.68077 27.0588 7.68077 26.9661 7.69647L26.611 7.75912L26.7499 8.58917ZM27.8308 9.37223C27.8154 9.37223 27.8 9.37223 27.7845 9.37223C27.7691 9.37223 27.7536 9.35658 27.7382 9.34093L27.1514 8.66747L27.3367 8.58917L27.8926 9.21563C27.9235 9.24692 27.939 9.27828 27.9235 9.30957C27.908 9.34093 27.8772 9.35658 27.8308 9.37223Z" fill="#A27035"/>
</svg>
