<svg width="60" height="60" viewBox="0 0 60 60" fill="none" xmlns="http://www.w3.org/2000/svg">
<mask id="mask0_40_287" style="mask-type:alpha" maskUnits="userSpaceOnUse" x="0" y="0" width="60" height="60">
<path fill-rule="evenodd" clip-rule="evenodd" d="M17.4224 6.17256C17.5966 5.99794 17.8035 5.85941 18.0313 5.76488C18.2591 5.67036 18.5033 5.6217 18.7499 5.6217C18.9966 5.6217 19.2408 5.67036 19.4686 5.76488C19.6964 5.85941 19.9033 5.99794 20.0774 6.17256L42.5774 28.6726C42.752 28.8467 42.8906 29.0536 42.9851 29.2814C43.0796 29.5092 43.1283 29.7534 43.1283 30.0001C43.1283 30.2467 43.0796 30.4909 42.9851 30.7187C42.8906 30.9465 42.752 31.1534 42.5774 31.3276L20.0774 53.8276C19.7254 54.1796 19.2478 54.3774 18.7499 54.3774C18.252 54.3774 17.7745 54.1796 17.4224 53.8276C17.0704 53.4755 16.8726 52.998 16.8726 52.5001C16.8726 52.0021 17.0704 51.5246 17.4224 51.1726L38.5987 30.0001L17.4224 8.82756C17.2478 8.65338 17.1093 8.44648 17.0148 8.21868C16.9202 7.99089 16.8716 7.74668 16.8716 7.50006C16.8716 7.25343 16.9202 7.00922 17.0148 6.78143C17.1093 6.55364 17.2478 6.34673 17.4224 6.17256Z" fill="white"/>
</mask>
<g mask="url(#mask0_40_287)">
<rect y="-1.5" width="60" height="59.1221" fill="#A27035"/>
</g>
</svg>
