<svg width="60" height="60" viewBox="0 0 60 60" fill="none" xmlns="http://www.w3.org/2000/svg">
<mask id="mask0_45_33" style="mask-type:alpha" maskUnits="userSpaceOnUse" x="4" y="4" width="52" height="52">
<mask id="mask1_45_33" style="mask-type:alpha" maskUnits="userSpaceOnUse" x="0" y="0" width="60" height="60">
<rect width="60" height="60" fill="#D9D9D9"/>
</mask>
<g mask="url(#mask1_45_33)">
<path d="M30.005 55.4185C26.428 55.4185 23.0922 54.7649 19.9975 53.4577C16.9028 52.1506 14.2134 50.3549 11.9292 48.0708C9.64506 45.7866 7.84942 43.0972 6.54229 40.0025C5.23513 36.9078 4.58154 33.572 4.58154 29.995C4.58154 26.4458 5.23433 23.1253 6.53992 20.0335C7.8455 16.9417 9.64115 14.2523 11.9269 11.9652C14.2126 9.67813 16.9028 7.87409 19.9975 6.55309C23.0922 5.23205 26.4264 4.57153 30 4.57153C32.9862 4.57153 35.7848 5.02859 38.3959 5.94272C41.007 6.85684 43.385 8.12653 45.53 9.75178L42.0866 13.206C40.3897 11.9735 38.5284 11.0171 36.5025 10.3367C34.4768 9.65628 32.3093 9.31609 30 9.31609C24.1665 9.31609 19.2608 11.3024 15.2829 15.2749C11.3051 19.2475 9.31617 24.1553 9.31617 29.9982C9.31617 35.8412 11.3049 40.7495 15.2824 44.7233C19.2598 48.697 24.1651 50.6838 29.9982 50.6838C35.8313 50.6838 40.7371 48.6974 44.7159 44.7245C48.6946 40.7516 50.6839 35.8434 50.6839 30C50.6839 28.9687 50.6109 27.9583 50.4647 26.9687C50.3186 25.9791 50.1027 25.0177 49.8171 24.0846L53.5712 20.3206C54.1817 21.8227 54.6439 23.379 54.9577 24.9895C55.2716 26.6 55.4285 28.2669 55.4285 29.9902C55.4285 33.5704 54.768 36.9078 53.4469 40.0025C52.1259 43.0972 50.3219 45.7874 48.0348 48.0732C45.7477 50.3589 43.0583 52.1545 39.9665 53.4601C36.8748 54.7657 33.5543 55.4185 30.005 55.4185ZM26.3402 41.6657L15.7392 31.0231L19.1146 27.6327L26.3402 34.8582L52.0381 9.13947L55.4702 12.5298L26.3402 41.6657Z" fill="#1C1B1F"/>
</g>
</mask>
<g mask="url(#mask0_45_33)">
<rect width="60" height="60" fill="#A27035"/>
</g>
</svg>
