<svg width="26" height="26" viewBox="0 0 26 26" fill="none" xmlns="http://www.w3.org/2000/svg">
<mask id="mask0_40_385" style="mask-type:alpha" maskUnits="userSpaceOnUse" x="0" y="0" width="26" height="26">
<g clip-path="url(#clip0_40_385)">
<path d="M19.0667 6.06667H20.8M7.80003 0.866669H18.2C20.0389 0.866669 21.8024 1.59714 23.1026 2.8974C24.4029 4.19765 25.1334 5.96117 25.1334 7.8V18.2C25.1334 20.0388 24.4029 21.8024 23.1026 23.1026C21.8024 24.4029 20.0389 25.1333 18.2 25.1333H7.80003C5.9612 25.1333 4.19768 24.4029 2.89743 23.1026C1.59717 21.8024 0.866699 20.0388 0.866699 18.2V7.8C0.866699 5.96117 1.59717 4.19765 2.89743 2.8974C4.19768 1.59714 5.9612 0.866669 7.80003 0.866669ZM13 18.2C11.6209 18.2 10.2983 17.6521 9.32308 16.677C8.34789 15.7018 7.80003 14.3791 7.80003 13C7.80003 11.6209 8.34789 10.2982 9.32308 9.32305C10.2983 8.34786 11.6209 7.8 13 7.8C14.3792 7.8 15.7018 8.34786 16.677 9.32305C17.6522 10.2982 18.2 11.6209 18.2 13C18.2 14.3791 17.6522 15.7018 16.677 16.677C15.7018 17.6521 14.3792 18.2 13 18.2Z" stroke="white" stroke-width="1.6"/>
</g>
</mask>
<g mask="url(#mask0_40_385)">
<rect x="-4" y="-3" width="30" height="30" fill="#A27035"/>
</g>
<defs>
<clipPath id="clip0_40_385">
<rect width="26" height="26" fill="white"/>
</clipPath>
</defs>
</svg>
