<svg width="30" height="30" viewBox="0 0 20 20" fill="none" xmlns="http://www.w3.org/2000/svg">
<path d="M16.2937 2.4975C16.0931 2.51209 15.8962 2.55916 15.7106 2.63687H15.7081C15.53 2.7075 14.6831 3.06375 13.3956 3.60375L8.78187 5.54687C5.47125 6.94062 2.21687 8.31312 2.21687 8.31312L2.25562 8.29812C2.25562 8.29812 2.03125 8.37187 1.79687 8.5325C1.65208 8.62463 1.52748 8.74519 1.43062 8.88687C1.31562 9.05562 1.22312 9.31375 1.2575 9.58062C1.31375 10.0319 1.60625 10.3025 1.81625 10.4519C2.02875 10.6031 2.23125 10.6737 2.23125 10.6737H2.23625L5.28812 11.7019C5.425 12.1412 6.21812 14.7487 6.40875 15.3494C6.52125 15.7081 6.63062 15.9325 6.7675 16.1037C6.83375 16.1912 6.91125 16.2644 7.00437 16.3231C7.05278 16.3513 7.1044 16.3735 7.15812 16.3894L7.12687 16.3819C7.13625 16.3844 7.14375 16.3919 7.15062 16.3944C7.17562 16.4012 7.1925 16.4037 7.22437 16.4087C7.7075 16.555 8.09562 16.255 8.09562 16.255L8.1175 16.2375L9.91937 14.5969L12.9394 16.9137L13.0081 16.9431C13.6375 17.2194 14.275 17.0656 14.6119 16.7944C14.9512 16.5212 15.0831 16.1719 15.0831 16.1719L15.105 16.1156L17.4387 4.16C17.505 3.865 17.5219 3.58875 17.4487 3.32062C17.3733 3.04926 17.1992 2.81588 16.9606 2.66625C16.7603 2.54444 16.5279 2.48565 16.2937 2.4975ZM16.2306 3.77875C16.2281 3.81812 16.2356 3.81375 16.2181 3.88937V3.89625L13.9062 15.7275C13.8962 15.7444 13.8794 15.7812 13.8331 15.8181C13.7844 15.8569 13.7456 15.8812 13.5425 15.8006L9.84875 12.9687L7.6175 15.0025L8.08625 12.0087L14.1212 6.38375C14.37 6.1525 14.2869 6.10375 14.2869 6.10375C14.3044 5.82 13.9112 6.02062 13.9112 6.02062L6.30125 10.735L6.29875 10.7225L2.65125 9.49437V9.49187L2.64187 9.49C2.64827 9.48787 2.65453 9.48537 2.66062 9.4825L2.68062 9.4725L2.7 9.46562C2.7 9.46562 5.95687 8.09312 9.2675 6.69937C10.925 6.00125 12.595 5.29812 13.8794 4.75562C14.6411 4.435 15.4036 4.11625 16.1669 3.79937C16.2181 3.77937 16.1937 3.77875 16.2306 3.77875Z" fill="#a27035"/>
</svg>
